<?xml version="1.0" encoding="UTF-8"?>
<svg width="120px" height="120px" viewBox="0 0 120 120" version="1.1" xmlns="http://www.w3.org/2000/svg" xmlns:xlink="http://www.w3.org/1999/xlink">
    <title>空投icon</title>
    <g id="域名" stroke="none" stroke-width="1" fill="none" fill-rule="evenodd">
        <g transform="translate(-900.000000, -1093.000000)" id="MDX使用场景">
            <g transform="translate(0.000000, 832.000000)">
                <g id="编组-10备份" transform="translate(760.000000, 178.000000)">
                    <g id="编组-11" transform="translate(136.500000, 83.000000)">
                        <g id="空投icon" transform="translate(3.500000, 0.000000)">
                            <rect id="矩形备份-3" opacity="0.339934593" x="0" y="0" width="120" height="120"></rect>
                            <g id="编组-22备份-3" transform="translate(4.000000, 6.000000)">
                                <g id="编组-20备份" fill-rule="nonzero">
                                    <path d="M62,0 C71.3888407,0 79,7.61115925 79,17 C79,26.280923 71.5628044,33.824796 62.3230397,33.9969921 L62,34 L49,34 C46.8578046,34 45.1089211,32.3160315 45.0048953,30.1996403 L45,30 L45,17 C45,14.790861 46.790861,13 49,13 C51.1421954,13 52.8910789,14.6839685 52.9951047,16.8003597 L53,17 L53,26 L62,26 C66.8818027,26 70.8557914,22.1131863 70.9961629,17.2653623 L71,17 C71,12.0294373 66.9705627,8 62,8 C59.790861,8 58,6.209139 58,4 C58,1.790861 59.790861,0 62,0 Z" id="路径备份-10" fill="#194A9D"></path>
                                    <path d="M36,0 C26.6111593,0 19,7.61115925 19,17 L19,30 C19,32.209139 20.790861,34 23,34 L36,34 C45.3888407,34 53,26.3888407 53,17 C53,14.0420357 52.2401755,11.1852116 50.8159917,8.6594661 C47.8249925,3.35502219 42.2041694,0 36,0 Z M36,8 C39.2876021,8 42.2606144,9.77456606 43.8474607,12.5887886 C44.5997792,13.9230021 45,15.427771 45,17 L44.9961629,17.2653623 C44.8557914,22.1131863 40.8818027,26 36,26 L27,26 L27,17 C27,12.0294373 31.0294373,8 36,8 Z" id="路径备份-11" fill="#194A9D" transform="translate(36.000000, 17.000000) scale(-1, 1) translate(-36.000000, -17.000000) "></path>
                                    <path d="M43,30.0054681 L43,48.5326691 C43,49.0849538 43.4477153,49.5326691 44,49.5326691 C44.125159,49.5326691 44.2492057,49.5091737 44.3656956,49.4634036 L49.6128476,47.4017414 C50.3401823,47.1159638 51.1503222,47.1252738 51.8708976,47.4276904 L56.6130122,49.4178981 C57.1222656,49.6316256 57.7083574,49.3920545 57.9220848,48.8828011 C57.9735123,48.7602637 58,48.6287049 58,48.4958133 L58,30.0054681 L58,30.0054681 L43,30.0054681 Z" id="路径-16" fill="#437BE1"></path>
                                    <path d="M81,26 C89.16177,26 95.8271263,32.4396511 95.9966913,40.4828416 L96,40.7970134 L96,46.1955201 C96,48.1905367 95.5838421,50.1272831 94.7626675,51.9706768 C93.8637251,53.9886455 91.4991014,54.8957956 89.4811327,53.9968532 C87.5262255,53.1260027 86.6137956,50.8796448 87.3759506,48.9054633 L87.4549564,48.7153184 C87.776148,47.9942994 87.9525533,47.2700519 87.991636,46.5190732 L88,46.1955201 L88,40.7970134 C88,37.1378293 85.0110403,34.1277928 81.2416387,34.0039628 L81,34 L15,34 C11.1983879,34 8.13022797,36.9338035 8.00403798,40.5643516 L8,40.7970134 L8,46.1955201 C8,48.7175748 9.57222802,51.1867191 13.175708,53.7204177 C14.1783579,54.4254063 14.798922,55.5482503 14.8684602,56.7636424 L14.875,56.9925336 L14.875,92.6182563 C14.875,96.0582032 17.6420733,98.8751117 21.1184067,98.9959603 L21.3511905,99 L58.9086141,99 C61.1177531,99 62.9086141,100.790861 62.9086141,103 C62.9086141,105.142195 61.2246457,106.891079 59.1082545,106.995105 L58.9086141,107 L21.3511905,107 C13.4693706,107 7.0460298,100.737341 6.8783591,92.9313095 L6.875,92.6182563 L6.875,58.979 L6.81504761,58.9306695 C2.4900425,55.3844616 0.12024272,51.234214 0.00445585945,46.5563919 L0,46.1955201 L0,40.7970134 C0,32.7129882 6.56071814,26.1696958 14.6827771,26.0032478 L15,26 L81,26 Z" id="形状备份-2" fill="#194A9D"></path>
                                    <path d="M70,54 C72.209139,54 74,55.790861 74,58 C74,60.1421954 72.3160315,61.8910789 70.1996403,61.9951047 L70,62 L31,62 C28.790861,62 27,60.209139 27,58 C27,55.8578046 28.6839685,54.1089211 30.8003597,54.0048953 L31,54 L70,54 Z" id="直线-5备份-2" fill="#194A9D"></path>
                                    <path d="M51,66.257877 C53.1421954,66.257877 54.8910789,67.9418454 54.9951047,70.0582366 L55,70.257877 L55,84 C55,86.209139 53.209139,88 51,88 C48.8578046,88 47.1089211,86.3160315 47.0048953,84.1996403 L47,84 L47,70.257877 C47,68.048738 48.790861,66.257877 51,66.257877 Z" id="直线-4" fill="#A8B5CD"></path>
                                    <path d="M57.3766974,80.7676304 C59.1022455,79.388218 61.6193134,79.6688164 62.9987259,81.3943646 C64.3321579,83.0623944 64.114402,85.4700555 62.5397221,86.8747311 L62.3719918,87.016393 L53.6154832,94.016393 C52.2428299,95.1136995 50.3232325,95.1820468 48.8807379,94.2080048 L48.702985,94.0808195 L39.4594936,87.0808195 C37.6983637,85.7471341 37.3518515,83.2382907 38.6855368,81.4771608 C39.9762001,79.7728415 42.3674276,79.3933463 44.116494,80.5793739 L44.2891956,80.703204 L51.051,85.824 L57.3766974,80.7676304 Z" id="路径-22" fill="#A8B5CD"></path>
                                </g>
                                <path d="M90.1071967,62.0015284 L89.3263744,62.0137391 C89.1967935,62.0167896 89.0674989,62.0203471 88.9385028,62.0244108 L88.1682075,62.05486 C87.7849495,62.0731146 87.4045998,62.0959086 87.0274901,62.1232179 L86.2776892,62.18385 C85.9050471,62.2171692 85.5358662,62.2549876 85.1704785,62.2972812 L84.4448587,62.387828 C84.3247977,62.4039112 84.2051828,62.4204899 84.0860262,62.4375632 L83.3766847,62.5459302 C83.2594105,62.5649781 83.1426192,62.5845188 83.0263232,62.6045513 L82.3345872,62.730642 L81.6553257,62.8684948 C81.5431877,62.8924481 81.4315941,62.9168896 81.3205571,62.9418186 L80.6611132,63.0972342 C80.4435906,63.1509843 80.2283929,63.2066768 80.0156183,63.2643047 L79.3846624,63.4429872 C73.7732541,65.1032548 70,68.1691681 70,72.5 C70,76.8308319 73.7732541,79.8967452 79.3846624,81.5570128 L80.0156183,81.7356953 C80.2283929,81.7933232 80.4435906,81.8490157 80.6611132,81.9027658 L81.3205571,82.0581814 C81.4315941,82.0831104 81.5431877,82.1075519 81.6553257,82.1315052 L82.3345872,82.269358 L83.0263232,82.3954487 C83.1426192,82.4154812 83.2594105,82.4350219 83.3766847,82.4540698 L84.0860262,82.5624368 C84.2051828,82.5795101 84.3247977,82.5960888 84.4448587,82.612172 L85.1704785,82.7027188 C85.5358662,82.7450124 85.9050471,82.7828308 86.2776892,82.81615 L87.0274901,82.8767821 C87.4045998,82.9040914 87.7849495,82.9268854 88.1682075,82.94514 L88.9385028,82.9755892 C89.0674989,82.9796529 89.1967935,82.9832104 89.3263744,82.9862609 L90.1071967,82.9984716 C90.2378736,82.9994902 90.3688121,83 90.5,83 L90.8928033,82.9984716 L91.6736256,82.9862609 C91.8032065,82.9832104 91.9325011,82.9796529 92.0614972,82.9755892 L92.8317925,82.94514 C93.2150505,82.9268854 93.5954002,82.9040914 93.9725099,82.8767821 L94.7223108,82.81615 C95.0949529,82.7828308 95.4641338,82.7450124 95.8295215,82.7027188 L96.5551413,82.612172 C96.6752023,82.5960888 96.7948172,82.5795101 96.9139738,82.5624368 L97.6233153,82.4540698 C97.7405895,82.4350219 97.8573808,82.4154812 97.9736768,82.3954487 L98.6654128,82.269358 L99.3446743,82.1315052 C99.4568123,82.1075519 99.5684059,82.0831104 99.6794429,82.0581814 L100.338887,81.9027658 C100.556409,81.8490157 100.771607,81.7933232 100.984382,81.7356953 L101.615338,81.5570128 C107.226746,79.8967452 111,76.8308319 111,72.5 C111,68.1691681 107.226746,65.1032548 101.615338,63.4429872 L100.984382,63.2643047 C100.771607,63.2066768 100.556409,63.1509843 100.338887,63.0972342 L99.6794429,62.9418186 C99.5684059,62.9168896 99.4568123,62.8924481 99.3446743,62.8684948 L98.6654128,62.730642 L97.9736768,62.6045513 C97.8573808,62.5845188 97.7405895,62.5649781 97.6233153,62.5459302 L96.9139738,62.4375632 C96.7948172,62.4204899 96.6752023,62.4039112 96.5551413,62.387828 L95.8295215,62.2972812 C95.4641338,62.2549876 95.0949529,62.2171692 94.7223108,62.18385 L93.9725099,62.1232179 C93.5954002,62.0959086 93.2150505,62.0731146 92.8317925,62.05486 L92.0614972,62.0244108 C91.9325011,62.0203471 91.8032065,62.0167896 91.6736256,62.0137391 L90.8928033,62.0015284 L90.1071967,62.0015284 Z M90.5,70 C94.4602812,70 98.1251621,70.6106509 100.701164,71.6254395 L100.963051,71.7316472 C101.460356,71.9393008 101.887681,72.1529691 102.237165,72.3616827 L102.457,72.5 L102.437452,72.5137715 C102.001292,72.7966875 101.415771,73.0930486 100.701164,73.3745605 C98.1251621,74.3893491 94.4602812,75 90.5,75 C86.5397188,75 82.8748379,74.3893491 80.2988362,73.3745605 L80.0369491,73.2683528 C79.5396438,73.0606992 79.1123191,72.8470309 78.7628351,72.6383173 L78.542,72.5 L78.5625484,72.4862285 C78.9987084,72.2033125 79.5842292,71.9069514 80.2988362,71.6254395 C82.8748379,70.6106509 86.5397188,70 90.5,70 Z" id="椭圆形" fill="#EBB34C"></path>
                                <path d="M104.767894,84.6807073 C106.601089,83.4479494 109.086535,83.9346995 110.319293,85.7678942 C111.552051,87.601089 111.0653,90.0865347 109.232106,91.3192927 C104.810411,94.2927244 98.0278065,96 89.8132184,96 C81.8049011,96 75.353301,94.3849972 70.8434168,91.4979762 C68.9828525,90.3069282 68.4401022,87.8331076 69.6311502,85.9725432 C70.8221982,84.1119789 73.2960188,83.5692286 75.1565832,84.7602766 C78.2756951,86.7569891 83.2412654,88 89.8132184,88 C96.5485544,88 101.79613,86.6791124 104.767894,84.6807073 Z" id="路径" fill="#EBB34C"></path>
                                <path d="M104.767894,97.6807073 C106.601089,96.4479494 109.086535,96.9346995 110.319293,98.7678942 C111.552051,100.601089 111.0653,103.086535 109.232106,104.319293 C104.810411,107.292724 98.0278065,109 89.8132184,109 C81.8049011,109 75.353301,107.384997 70.8434168,104.497976 C68.9828525,103.306928 68.4401022,100.833108 69.6311502,98.9725432 C70.8221982,97.1119789 73.2960188,96.5692286 75.1565832,97.7602766 C78.2756951,99.7569891 83.2412654,101 89.8132184,101 C96.5485544,101 101.79613,99.6791124 104.767894,97.6807073 Z" id="路径备份-6" fill="#EBB34C"></path>
                            </g>
                        </g>
                    </g>
                </g>
            </g>
        </g>
    </g>
</svg>