<?xml version="1.0" encoding="UTF-8"?>
<svg width="120px" height="120px" viewBox="0 0 120 120" version="1.1" xmlns="http://www.w3.org/2000/svg" xmlns:xlink="http://www.w3.org/1999/xlink">
    <title>Dao icon</title>
    <g id="域名" stroke="none" stroke-width="1" fill="none" fill-rule="evenodd">
        <g transform="translate(-1301.000000, -1093.000000)" id="MDX使用场景">
            <g transform="translate(0.000000, 832.000000)">
                <g id="编组-10备份-2" transform="translate(1160.000000, 178.000000)">
                    <g id="编组-11" transform="translate(131.000000, 83.000000)">
                        <g id="Dao-icon" transform="translate(10.000000, 0.000000)">
                            <rect id="矩形备份-4" opacity="0.339934593" x="0" y="0" width="120" height="120"></rect>
                            <g id="编组-13" transform="translate(6.000000, 3.000000)">
                                <g id="编组-20" transform="translate(1.999507, 34.000000)">
                                    <path d="M21.7640527,2.50023449 C27.934037,17.7556188 20.876505,25.798411 3.96125084,23.6083811 L3.44565349,23.5388813 L4.5553329,15.6162168 C5.39330895,15.733587 6.18355903,15.8230493 6.92639691,15.8864379 L7.65344234,15.9412031 C7.77198644,15.9489048 7.88921644,15.9558992 8.00513379,15.9621948 L8.68489776,15.9916507 C12.2264201,16.1047509 14.4267661,15.51968 15.3335355,14.5147083 C16.2156505,13.537061 16.3288112,11.3738075 15.2039531,7.85044098 L14.9925018,7.21451606 C14.880255,6.88945868 14.7581548,6.55373225 14.625879,6.20721692 L14.3476645,5.49976551 L21.7640527,2.50023449 Z" id="路径-20" fill="#A8B5CD" fill-rule="nonzero"></path>
                                    <path d="M17.6639652,36.2026455 C19.3134998,31.194268 23.7701807,28.4126894 29.9020491,29.1093471 L30.2444247,29.1516366 L30.4957282,29.1851481 L30.7407896,29.2501202 C33.2659875,29.9196151 35.1062275,30.9910697 36.98165,32.6295031 L37.389238,32.9940526 L38.5506176,34.0775402 L38.8142007,34.3144391 C38.8567322,34.3516312 38.8986318,34.3876778 38.9400012,34.4225789 L39.1826653,34.6182394 C40.0550543,35.2852597 40.7690219,35.3978692 42.4054041,34.9562144 L42.8753719,34.8220211 L43.3959517,34.6603443 L44.1032152,34.427215 L44.3574842,34.3600023 L45.173639,34.1123162 C47.4974964,33.4088758 49.5632132,33.4052197 53.4687239,34.2691166 L53.8943071,34.3650044 L52.1066793,42.1627212 L51.2667669,41.9756567 L50.5504504,41.8286482 L50.1338509,41.751682 L49.7606036,41.6906977 L49.4260766,41.6449671 L49.1256383,41.6137618 L48.8546569,41.5963536 C48.8116907,41.5945615 48.769759,41.593314 48.7287651,41.5925958 L48.4932844,41.5945175 L48.2756812,41.6084156 C48.2056118,41.6149634 48.13775,41.6233859 48.0713238,41.6335617 L47.8755803,41.6692275 C47.8434169,41.6760079 47.8114194,41.6831964 47.7794914,41.6907777 L47.5879843,41.7408575 L46.9732577,41.9291631 L46.4856403,42.0717836 L46.3854932,42.098 L46.1270653,42.1835099 C40.3709111,44.0299774 36.8436305,43.2655695 33.369473,40.1777327 L32.8042058,39.6570076 L31.9407956,38.8523013 C30.9808848,37.9823327 30.2239771,37.4809751 29.2170255,37.1406579 L28.9264932,37.049 L28.6844211,37.0242358 C26.6031681,36.8318528 25.7552071,37.3599421 25.3118585,38.5633915 L25.2624514,38.7052456 C24.7568742,40.2402976 25.0282883,42.5584368 25.733954,43.7830256 C27.6700286,47.1428253 28.4607096,52.0141851 28.3146139,58.5260548 L28.2987576,59.1225658 L20.3025141,58.8774342 C20.4647989,53.5836707 19.9280232,49.8998485 18.9002297,47.9545623 L18.8024419,47.777289 C16.9803572,44.6153037 16.4329831,39.9401985 17.6639652,36.2026455 Z" id="路径-21" fill="#A8B5CD" fill-rule="nonzero"></path>
                                    <path d="M54.0849899,21.4555198 C56.0000184,26.0305614 57.0004932,30.979747 57.0004932,36.0662092 C57.0004932,45.7775136 53.3415996,54.9092881 46.9137128,61.7410129 C45.3998932,63.3499396 42.8684071,63.4270392 41.2594803,61.9132196 C39.6505536,60.3994 39.573454,57.8679139 41.0872736,56.2589871 C46.1260096,50.9036878 49.0004932,43.7296241 49.0004932,36.0662092 C49.0004932,32.043768 48.2122163,28.1442909 46.7054016,24.5444802 C45.8524088,22.5066631 46.8128986,20.1631987 48.8507156,19.3102058 C50.8885327,18.457213 53.2319971,19.4177028 54.0849899,21.4555198 Z M21.0694271,0 C26.1483858,0 31.0866619,1.06919807 35.6382159,3.11179542 C37.6537045,4.01628468 38.5543474,6.38339444 37.6498581,8.39888304 C36.7453689,10.4143716 34.3782591,11.3150146 32.3627705,10.4105253 C28.835638,8.82765675 25.0129622,8 21.0694271,8 C15.7164621,8 10.5928545,9.52721975 6.15817961,12.3681433 C4.29800542,13.5598006 1.82400719,13.0178606 0.632349886,11.1576864 C-0.559307413,9.29751222 -0.0173673991,6.82351399 1.84280679,5.63185669 C7.55446986,1.97287408 14.1731852,0 21.0694271,0 Z" id="形状" fill="#EBB34C"></path>
                                </g>
                                <path d="M44.9716981,14 C47.1808371,14 48.9716981,15.790861 48.9716981,18 C48.9716981,20.1421954 47.2877296,21.8910789 45.1713385,21.9951047 L44.9716981,22 L8,22 L8,89 L101,89 L101,55.5 C101,53.3578046 102.683968,51.6089211 104.80036,51.5048953 L105,51.5 C107.142195,51.5 108.891079,53.1839685 108.995105,55.3003597 L109,55.5 L109,89.1538462 C109,93.3958749 105.643844,96.8642815 101.437097,96.9961129 L101.188679,97 L7.81132075,97 C3.57218058,97 0.134502759,93.6131709 0.00385211033,89.4024656 L0,89.1538462 L0,21.8461538 C0,17.6041251 3.35615589,14.1357185 7.56290287,14.0038871 L7.81132075,14 L44.9716981,14 Z" id="路径" fill="#194A9D" fill-rule="nonzero"></path>
                                <path d="M83,0 C68.6405965,0 57,11.6405965 57,26 L57.0057424,26.5509448 C57.0822453,30.2184201 57.9219066,33.7730176 59.4498983,37.0302207 L59.593,37.328 L59.5621188,37.4977277 L59.4961404,37.8092222 L59.4096796,38.1673171 L59.1985725,38.9538216 L58.6765173,40.8004165 L58.5397039,41.3029109 L58.4224597,41.7537327 L58.3223321,42.1647062 L58.2368686,42.5476554 L58.1636166,42.9144046 C58.1522894,42.9748364 58.1413687,43.0350858 58.1308035,43.0953993 L58.0712703,43.4600187 C57.7503431,45.5733974 57.9236212,47.2719957 59.3604316,48.8001465 C60.7931919,50.3239897 62.5374263,50.6270313 64.5559286,50.3903316 C65.1584446,50.3196775 65.7383984,50.2083722 66.4425059,50.0335007 L66.9961578,49.8900705 L67.6101219,49.7206547 L69.4089716,49.2063337 L69.9084726,49.0726504 L70.1857138,49.0039816 L70.5400772,48.9262812 L70.681,48.9 L70.9099495,49.0231245 C74.6038746,50.9665556 78.7305985,52 83,52 C97.3594035,52 109,40.3594035 109,26 C109,11.6405965 97.3594035,0 83,0 Z M83,8 C92.9411255,8 101,16.0588745 101,26 C101,35.9411255 92.9411255,44 83,44 C79.7910538,44 76.7137053,43.1627145 74.0019049,41.5937904 C72.579626,40.7709246 71.1522406,40.7102147 69.4316443,40.9972944 L69.2441311,41.0296685 L69.0401795,41.0674792 L68.629864,41.1520955 C68.5603844,41.1673752 68.4900829,41.1833027 68.4185465,41.1999666 L67.9712082,41.3094989 L67.4744207,41.4409699 L66.752,41.643 L67.075235,40.4794511 L67.2258993,39.8906971 L67.3082497,39.5383169 L67.3808386,39.1980238 L67.4477052,38.8526658 C67.7523476,37.2042967 67.7664116,35.8915257 67.1473973,34.5534034 L67.0238296,34.3021203 C65.7002917,31.7615215 65,28.9354514 65,26 C65,16.0588745 73.0588745,8 83,8 Z" id="椭圆形" fill="#EBB34C"></path>
                                <path d="M76.5217391,106.5 C78.7308781,106.5 80.5217391,108.290861 80.5217391,110.5 C80.5217391,112.642195 78.8377707,114.391079 76.7213795,114.495105 L76.5217391,114.5 L33.4782609,114.5 C31.2691219,114.5 29.4782609,112.709139 29.4782609,110.5 C29.4782609,108.357805 31.1622293,106.608921 33.2786205,106.504895 L33.4782609,106.5 L76.5217391,106.5 Z" id="直线-7" fill="#194A9D" fill-rule="nonzero"></path>
                                <path d="M44.2630888,101.573292 C45.0510376,99.5094534 47.3628684,98.4751399 49.4267075,99.2630888 C51.4260517,100.026414 52.4592101,102.219867 51.805467,104.23255 L51.7369112,104.426708 L49.5085419,110.263376 C48.7205931,112.327215 46.4087622,113.361528 44.3449231,112.573579 C42.345579,111.810254 41.3124206,109.616801 41.9661637,107.604118 L42.0347194,107.409961 L44.2630888,101.573292 Z" id="直线-3" fill="#194A9D" fill-rule="nonzero"></path>
                                <path d="M60.625891,102.00437 C61.1757624,99.8647584 63.356019,98.5760196 65.4956303,99.125891 C67.5683787,99.658579 68.8426033,101.721345 68.420303,103.794974 L68.374109,103.99563 L66.874109,109.832298 C66.3242376,111.97191 64.143981,113.260649 62.0043697,112.710777 C59.9316213,112.178089 58.6573967,110.115323 59.079697,108.041695 L59.125891,107.841038 L60.625891,102.00437 Z" id="直线-3备份-2" fill="#194A9D" fill-rule="nonzero" transform="translate(63.750000, 105.918334) scale(-1, 1) translate(-63.750000, -105.918334) "></path>
                                <g id="编组-50" transform="translate(73.000000, 16.000000)" fill="#437BE1" fill-rule="nonzero">
                                    <ellipse id="椭圆形" cx="10" cy="15.5555556" rx="10" ry="4.44444444"></ellipse>
                                    <circle id="椭圆形" cx="10" cy="6.66666667" r="6.66666667"></circle>
                                </g>
                                <path d="M92.5185185,58.5 C94.7276575,58.5 96.5185185,60.290861 96.5185185,62.5 C96.5185185,64.6421954 94.83455,66.3910789 92.7181589,66.4951047 L92.5185185,66.5 L67.4814815,66.5 C65.2723425,66.5 63.4814815,64.709139 63.4814815,62.5 C63.4814815,60.3578046 65.16545,58.6089211 67.2818411,58.5048953 L67.4814815,58.5 L92.5185185,58.5 Z" id="直线-8备份" fill="#EBB34C"></path>
                                <path d="M91.5357143,71.5 C93.7448533,71.5 95.5357143,73.290861 95.5357143,75.5 C95.5357143,77.6421954 93.8517458,79.3910789 91.7353546,79.4951047 L91.5357143,79.5 L79.4642857,79.5 C77.2551467,79.5 75.4642857,77.709139 75.4642857,75.5 C75.4642857,73.3578046 77.1482542,71.6089211 79.2646454,71.5048953 L79.4642857,71.5 L91.5357143,71.5 Z" id="直线-8备份-2" fill="#EBB34C"></path>
                                <circle id="椭圆形" fill="#A8B5CD" fill-rule="nonzero" cx="46" cy="48" r="4"></circle>
                            </g>
                        </g>
                    </g>
                </g>
            </g>
        </g>
    </g>
</svg>