<?xml version="1.0" encoding="UTF-8"?>
<svg width="120px" height="120px" viewBox="0 0 120 120" version="1.1" xmlns="http://www.w3.org/2000/svg" xmlns:xlink="http://www.w3.org/1999/xlink">
    <title>回购icon备份</title>
    <g id="域名" stroke="none" stroke-width="1" fill="none" fill-rule="evenodd">
        <g transform="translate(-500.000000, -1093.000000)" id="MDX使用场景">
            <g transform="translate(0.000000, 832.000000)">
                <g id="编组-15" transform="translate(360.000000, 178.000000)">
                    <g id="回购icon备份" transform="translate(140.000000, 83.000000)">
                        <rect id="矩形" opacity="0.339934593" x="0" y="0" width="120" height="120"></rect>
                        <g id="编组-19" transform="translate(5.500000, 6.000000)">
                            <g id="编组-18" transform="translate(26.999999, 14.500000)">
                                <path d="M12.7647346,22.5 C12.7647346,31.0716742 19.5933974,38 27.9914224,38 C32.2859903,38 36.2894176,36.1850307 39.1570823,33.0385765 C40.4591583,31.6099149 42.6728585,31.507297 44.1015201,32.809373 C45.5301818,34.1114491 45.6327997,36.3251493 44.3307236,37.7538109 C40.1529919,42.3376945 34.2805255,45 27.9914224,45 C18.4195835,45 10.272174,38.8796608 7.13885226,30.3051817 L6.96600052,29.814 L5.99185328,30.8024354 C4.68293862,32.1294973 2.57562769,32.1910781 1.19281062,30.9766938 L1.04222311,30.8365108 C-0.284838732,29.5275961 -0.346419594,27.4202852 0.867964746,26.0374681 L1.00814776,25.8868806 L6.77288182,20.0422226 C8.97069514,17.8139381 12.7647346,19.3702021 12.7647346,22.5 Z" id="路径" fill="#437BE1" fill-rule="nonzero"></path>
                                <path d="M27.8691589,0 C37.5722584,0 45.8435499,6.1281131 49.0132882,14.7219746 L49.1180005,15.014 L49.9471693,14.1302356 C51.2223207,12.7706991 53.3274185,12.6561796 54.7403171,13.8354294 L54.8943799,13.9717838 C56.2539165,15.2469352 56.3684359,17.352033 55.1891861,18.7649316 L55.0528318,18.9189944 L49.4483334,24.8943794 C47.2780066,27.208331 43.3955021,25.6724896 43.3955021,22.5 C43.3955021,13.9406728 36.4452062,7 27.8691589,7 C23.111987,7 18.7150089,9.14467858 15.7820902,12.7702442 C14.5663688,14.2730739 12.3625476,14.5058213 10.8597178,13.2900999 C9.35688799,12.0743785 9.12414066,9.87055726 10.3398621,8.36772747 C14.5883033,3.11596173 20.9765871,0 27.8691589,0 Z" id="路径" fill="#A8B5CD" fill-rule="nonzero"></path>
                                <path d="M23.6103882,15.506439 L33.5656839,15.5382857 C34.665254,15.5418032 35.5557583,16.4323075 35.5592758,17.5318776 L35.5911225,27.4871733 C35.594656,28.5917372 34.7020945,29.4900275 33.5975307,29.493561 C33.5932654,29.4935747 33.5890001,29.4935747 33.5847348,29.493561 L23.6294391,29.4617143 C22.529869,29.4581968 21.6393647,28.5676925 21.6358472,27.4681224 L21.6040005,17.5128267 C21.600467,16.4082628 22.4930285,15.5099725 23.5975923,15.506439 C23.6018576,15.5064253 23.6061229,15.5064253 23.6103882,15.506439 Z" id="矩形" fill="#EBB34C" transform="translate(28.597561, 22.500000) rotate(-45.000000) translate(-28.597561, -22.500000) "></path>
                            </g>
                            <path d="M90.5,78 C92.709139,78 94.5,79.790861 94.5,82 C94.5,84.1421954 92.8160315,85.8910789 90.6996403,85.9951047 L90.5,86 L19.5,86 C17.290861,86 15.5,84.209139 15.5,82 C15.5,79.8578046 17.1839685,78.1089211 19.3003597,78.0048953 L19.5,78 L90.5,78 Z" id="直线-3备份" fill="#EBB34C"></path>
                            <g id="编组-17" transform="translate(21.000000, 78.130339)" fill="#EBB34C">
                                <path d="M34,0.0023759735 C36.1421954,0.0023759735 37.8910789,1.68634444 37.9951047,3.80273563 L38,4.00237597 L38,26.283626 C38,28.492765 36.209139,30.283626 34,30.283626 C31.8578046,30.283626 30.1089211,28.5996575 30.0048953,26.4832663 L30,26.283626 L30,4.00237597 C30,1.79323697 31.790861,0.0023759735 34,0.0023759735 Z" id="路径-14备份-5"></path>
                                <path d="M19,0.0284725713 C21.1421954,0.0284725713 22.8910789,1.71244104 22.9951047,3.82883223 L23,4.02847257 L23,22.295894 C23,24.505033 21.209139,26.295894 19,26.295894 C16.8578046,26.295894 15.1089211,24.6119255 15.0048953,22.4955344 L15,22.295894 L15,4.02847257 C15,1.81933357 16.790861,0.0284725713 19,0.0284725713 Z" id="路径-14备份-6"></path>
                                <path d="M49,0.0284725713 C51.1421954,0.0284725713 52.8910789,1.71244104 52.9951047,3.82883223 L53,4.02847257 L53,22.295894 C53,24.505033 51.209139,26.295894 49,26.295894 C46.8578046,26.295894 45.1089211,24.6119255 45.0048953,22.4955344 L45,22.295894 L45,4.02847257 C45,1.81933357 46.790861,0.0284725713 49,0.0284725713 Z" id="路径-14备份-7"></path>
                                <path d="M4,0 C6.14219539,0 7.89107888,1.68396847 7.99510469,3.80035966 L8,4 L8,15.2941176 C8,17.5032566 6.209139,19.2941176 4,19.2941176 C1.85780461,19.2941176 0.108921124,17.6101492 0.00489530723,15.493758 L0,15.2941176 L0,4 C0,1.790861 1.790861,0 4,0 Z" id="路径-14备份-8"></path>
                                <path d="M64,0 C66.1421954,0 67.8910789,1.68396847 67.9951047,3.80035966 L68,4 L68,15.2941176 C68,17.5032566 66.209139,19.2941176 64,19.2941176 C61.8578046,19.2941176 60.1089211,17.6101492 60.0048953,15.493758 L60,15.2941176 L60,4 C60,1.790861 61.790861,0 64,0 Z" id="路径-14备份-9"></path>
                            </g>
                            <path d="M95.5,63.5 C102.852291,63.5 108.831834,69.3774286 108.996515,76.6901692 L109,77 L109,86.6586356 C109,93.1984406 103.698441,98.5 97.1586356,98.5 C95.225639,98.5 93.6586356,96.9329966 93.6586356,95 C93.6586356,93.1314366 95.1229132,91.6048736 96.9666004,91.5051789 L97.1586356,91.5 C99.7601821,91.5 101.882465,89.448029 101.995283,86.8742889 L102,86.6586356 L102,77 C102,73.4881894 99.2150038,70.6268494 95.7331341,70.504103 L95.5,70.5 L13.5,70.5 C9.98818936,70.5 7.12684944,73.2849962 7.00410301,76.7668659 L7,77 L7,85.9619715 C7,88.9477171 9.36279589,91.3816022 12.3205698,91.4958089 L12.5380285,91.5 C14.4710251,91.5 16.0380285,93.0670034 16.0380285,95 C16.0380285,96.9329966 14.4710251,98.5 12.5380285,98.5 C5.71529836,98.5 0.165385499,93.0504214 0.00362827196,86.2666026 L0,85.9619715 L0,77 C0,69.6477093 5.87742858,63.6681655 13.1901692,63.5034854 L13.5,63.5 L95.5,63.5 Z" id="路径" fill="#194A9D" fill-rule="nonzero"></path>
                            <path d="M84.5,0 C92.1275002,0 98.3303269,6.09975237 98.496578,13.687355 L98.5,14 L98.5,53 C98.5,55.209139 96.709139,57 94.5,57 C92.3578046,57 90.6089211,55.3160315 90.5048953,53.1996403 L90.5,53 L90.5,14 C90.5,10.7616031 87.9344251,8.12242824 84.7249383,8.00413847 L84.5,8 L24.5,8 C21.2616031,8 18.6224282,10.5655749 18.5041385,13.7750617 L18.5,14 L18.5,53 C18.5,55.209139 16.709139,57 14.5,57 C12.3578046,57 10.6089211,55.3160315 10.5048953,53.1996403 L10.5,53 L10.5,14 C10.5,6.37249981 16.5997524,0.169673114 24.187355,0.00342204548 L24.5,0 L84.5,0 Z" id="路径" fill="#194A9D" fill-rule="nonzero"></path>
                        </g>
                    </g>
                </g>
            </g>
        </g>
    </g>
</svg>