<?xml version="1.0" encoding="UTF-8"?>
<svg width="94px" height="28px" viewBox="0 0 94 28" version="1.1" xmlns="http://www.w3.org/2000/svg" xmlns:xlink="http://www.w3.org/1999/xlink">
    <title>LOGO</title>
    <g id="域名" stroke="none" stroke-width="1" fill="none" fill-rule="evenodd">
        <g transform="translate(-50.000000, -25.000000)" id="LOGO">
            <g transform="translate(50.000000, 25.000000)" id="编组-2备份">
                <path d="M13.9530637,0 C10.1911097,0 6.67179117,1.48627036 4.07890551,4.07948012 C1.48452738,6.70063621 0,10.2167064 0,13.9546516 C0,17.7017345 1.49222436,21.2428185 4.07890551,23.829823 C6.69976445,26.4245556 10.2154771,27.9093031 13.9530637,27.9093031 C17.6997868,27.9093031 21.2405108,26.4168574 23.8272219,23.829823 C26.4216001,21.2086669 27.9061274,17.6925967 27.9061274,13.9546516 C27.9061274,10.2075686 26.4139031,6.66648461 23.8272219,4.07948012 C21.206363,1.48474755 17.6906503,0 13.9530637,0 Z M13.9530637,2.50083361 C17.0230897,2.50083361 19.9092856,3.71972512 22.0632543,5.85220306 C24.1803604,7.96959661 25.4052938,10.8763928 25.4052938,13.9546516 C25.4052938,17.0251699 24.1865201,19.9118086 22.0542785,22.0660769 C19.9371795,24.1834178 17.0308292,25.4084695 13.9530637,25.4084695 C10.8830378,25.4084695 7.99684183,24.189578 5.84287316,22.0571 C3.72576703,19.9397065 2.50083361,17.0329103 2.50083361,13.9546516 C2.50083361,10.8841332 3.71960737,7.99749454 5.85184891,5.84322618 C7.97554516,3.71928726 10.8607043,2.50083361 13.9530637,2.50083361 Z" id="形状结合" fill="#FFFFFF" fill-rule="nonzero"></path>
                <path d="M6.95167708,17.983606 C6.95167708,18.9776311 7.82190047,19.7728511 8.88028027,19.7728511 L9.06843668,19.7728511 L9.02139758,11.5334878 C9.02139758,11.246325 9.09195623,11.0033411 9.23307354,10.7824466 C9.37419085,10.5615522 9.58586681,10.406926 9.86810142,10.2743894 C10.150336,10.1639421 10.4325706,10.1197632 10.6912857,10.1639421 C10.9500008,10.208121 11.2087158,10.3185683 11.4203918,10.5173733 L14.8542463,13.4110907 C14.8777658,13.4331801 15.0188831,13.5436274 15.1364809,13.6540746 C15.4892741,13.9412374 15.6774306,14.0958635 15.6774306,14.5597419 C15.6774306,14.9573519 15.5127937,15.310783 15.2305591,15.5758564 C14.9483245,15.8409297 14.5720116,15.9955559 14.1486597,15.9955559 C13.7253078,15.9955559 13.348995,15.8409297 13.0667604,15.5758564 C12.7845258,15.310783 12.6198889,14.9573519 12.6198889,14.5597419 C12.6198889,14.0737741 12.8315649,13.8970585 13.2078777,13.5878063 C13.2549168,13.5436274 13.5371514,13.3006435 13.6547492,13.2122857 L12.0789392,11.8869189 L11.7967046,12.1299028 C10.9500008,12.8367651 10.5031293,13.2122857 10.5031293,14.5818313 C10.5031293,15.5316775 10.9029617,16.3710764 11.5615091,16.9895809 C12.2200565,17.6080854 13.137319,17.983606 14.1251402,17.983606 C15.1364809,17.983606 16.0302238,17.6080854 16.6887713,16.9895809 C17.3473187,16.3710764 17.7471511,15.5095881 17.7471511,14.5818313 C17.7471511,13.2343751 17.27676,12.8367651 16.4535757,12.1961712 C16.4065366,12.1519923 16.3594975,12.1078134 16.1948607,11.9752767 L12.8315649,9.0373804 C12.3141347,8.59559148 11.6791069,8.30842868 11.0205594,8.2200709 C10.362012,8.13171312 9.67994501,8.19798145 9.02139758,8.48514425 C8.36285015,8.7502176 7.84542002,9.19200652 7.49262676,9.72215322 C7.13983349,10.2522999 6.92815753,10.8708044 6.95167708,11.5334878 L6.95167708,17.983606 L6.95167708,17.983606 Z" id="路径" fill="#FFFFFF"></path>
                <path d="M16.42803,10.8903534 L16.867737,10.5147254 C17.0875905,10.3158635 17.3563004,10.2053847 17.6250102,10.1611932 C17.8937201,10.1170017 18.1868581,10.1611932 18.4799961,10.271672 C18.7487059,10.3821508 18.9685594,10.558917 19.1395566,10.7798746 C19.2861256,11.0008323 19.3838383,11.2438857 19.3594101,11.5311306 L19.3105537,19.7728511 L19.5059791,19.7728511 C20.6052466,19.7728511 21.4846606,18.9774036 21.5090888,17.9830941 L21.5579451,11.5311306 C21.5579451,10.8682577 21.3625198,10.2274805 20.9960973,9.71927788 C20.6296748,9.18897951 20.0678269,8.76915996 19.4082664,8.48191502 C18.7242777,8.21676583 18.0158609,8.12838277 17.3318722,8.21676583 C16.6478835,8.30514889 15.988323,8.59239384 15.4509033,9.03430915 L15.0111963,9.40993716 L14.5714893,9.78556517 L16.2081765,11.1113111 L16.42803,10.8903534 Z" id="路径" fill="#4CA9DC"></path>
                <polygon id="路径" fill="#FFFFFF" points="76.8144592 21.6027294 67.9226064 21.6027294 67.9226064 6.96370335 76.8144592 6.96370335 76.8144592 9.73466184 70.9601958 9.73466184 70.9601958 12.8193138 75.9307968 12.8193138 75.9307968 15.4334255 70.9601958 15.4334255 70.9601958 18.8317709 76.8144592 18.8317709"></polygon>
                <path d="M55.4042612,6.35374393 L59.1214867,6.35374393 C61.0070359,6.35374393 62.7309665,7.1028169 63.9700417,8.38694199 C65.2091168,9.61756187 66.0172093,11.3297287 66.0172093,13.2024111 L66.0172093,14.7540622 C66.0172093,16.6267446 65.2629897,18.3389114 63.9700417,19.5695313 C62.7309665,20.8001512 61.0070359,21.6027294 59.1214867,21.6027294 L53.9496948,21.6027294 L53.9496948,6.35374393 L55.4042612,6.35374393 L55.4042612,6.35374393 Z M59.1214867,9.29653059 L57.2359376,9.29653059 L57.2359376,18.6599427 L59.1214867,18.6599427 C60.1989434,18.6599427 61.1686544,18.231901 61.8690012,17.5363332 C62.569348,16.8407655 63.0003307,15.8776717 63.0003307,14.8075674 L63.0003307,13.2559163 C63.0003307,12.185812 62.569348,11.2227182 61.8690012,10.5271505 C61.2225272,9.7780775 60.1989434,9.29653059 59.1214867,9.29653059 Z" id="形状" fill="#FFFFFF"></path>
                <path d="M35.5308567,21.549597 L35.5308567,7.89458218 C35.5308567,7.04446453 36.240197,6.35374393 37.1132311,6.35374393 C37.6588775,6.35374393 38.1499592,6.6194057 38.4227824,7.09759688 L43.4972934,14.1110675 L43.4972934,14.1110675 L45.4070556,16.7676852 L44.8068446,17.6178029 C44.6977153,17.7771999 44.5885861,17.8834646 44.4248922,17.9897293 C43.7155519,18.4679205 42.7333885,18.3085235 42.2423068,17.6178029 L38.6956055,12.676494 L38.6956055,21.4964647 L35.5308567,21.4964647 L35.5308567,21.549597 Z M44.0429397,13.3672146 L45.9527019,16.0238323 L48.2989812,12.7827587 L48.2989812,21.6027294 L51.4091654,21.6027294 L51.4091654,7.94771453 L51.4091654,7.94771453 C51.4091654,7.46952335 51.1909068,6.99133217 50.7543898,6.7256704 C50.0450495,6.24747922 49.0628861,6.40687628 48.5718044,7.09759688 L44.0429397,13.3672146 Z" id="形状" fill="#FFFFFF"></path>
                <path d="M83.0069996,6.96370335 L84.3554344,8.73032655 L88.0636302,13.5625606 C88.3445541,13.8743176 88.3445541,14.3419532 88.0636302,14.6537102 L86.6590106,16.5242524 L86.6590106,16.5242524 L83.2317387,20.9927699 L79.5235429,20.9927699 L84.8049127,14.1341152 L79.3549886,7.01566285 L79.3549886,7.01566285 L83.0069996,7.01566285 L83.0069996,6.96370335 Z M89.0187715,14.8095887 L87.1646736,17.199726 L90.0862824,20.9927699 L93.7944782,20.9927699 L91.6032716,18.1349971 L91.6032716,18.1349971 L89.0187715,14.8095887 L89.0187715,14.8095887 Z M87.1646736,11.0685043 L89.0187715,13.4586416 L91.7156412,9.92539519 L91.7156412,9.92539519 L93.9630325,7.01566285 L93.9630325,7.01566285 L90.3110215,7.01566285 L87.1646736,11.0685043 Z" id="形状" fill="#4CA9DC"></path>
            </g>
        </g>
    </g>
</svg>