<?xml version="1.0" encoding="UTF-8"?>
<svg width="47px" height="47px" viewBox="0 0 47 47" version="1.1" xmlns="http://www.w3.org/2000/svg" xmlns:xlink="http://www.w3.org/1999/xlink">
    <title>待奖励金额@1x</title>
    <g id="域名" stroke="none" stroke-width="1" fill="none" fill-rule="evenodd">
        <g transform="translate(-479.000000, -641.000000)" id="编组-36">
            <g transform="translate(0.000000, 400.000000)">
                <g id="编组-24" transform="translate(360.000000, 101.000000)">
                    <g id="编组-11" transform="translate(0.000000, 95.000000)">
                        <g id="编组-13" transform="translate(119.000000, 32.000000)">
                            <g id="待奖励金额" transform="translate(0.000000, 13.000000)">
                                <path d="M9.87714692,1.36254239 C18.959049,-0.454180797 28.040951,-0.454180797 37.1228531,1.36254239 C40.8077162,2.17064143 44.8293586,6.19228385 45.6374576,9.87714692 C47.4541808,18.959049 47.4541808,28.040951 45.6374576,37.1228531 C44.8293586,40.8077162 40.8077162,44.8293586 37.1228531,45.6374576 C28.040951,47.4541808 18.959049,47.4541808 9.87714692,45.6374576 C6.19228385,44.8293586 2.17064143,40.8077162 1.36254239,37.1228531 C-0.454180797,28.040951 -0.454180797,18.959049 1.36254239,9.87714692 C2.17064143,6.19228385 6.19228385,2.17064143 9.87714692,1.36254239" id="Fill-1" fill="#004DCC" opacity="0.35"></path>
                                <g id="编组-34" transform="translate(12.000000, 12.000000)">
                                    <rect id="矩形" x="0" y="0" width="24" height="24"></rect>
                                    <g id="编组" transform="translate(2.500000, 1.000000)" stroke="#FFFFFF">
                                        <path d="M12.1301413,6 C13.7592846,6 15,2.13272905 15,2.13272905 C15,0.97572746 14.8934488,0.0982183891 13.0867507,0.0374540729 C11.2800526,-0.0232810717 10.8472513,1.41569261 9.54881688,1.41569261 C8.25041297,1.41569261 7.55124891,0.2780901 5.91321875,0.0326115974 C4.27518858,-0.212866905 4,0.970826641 4,2.12788657 C4,2.12788657 5.24071539,5.99515752 6.86985866,5.99515752 L12.1301413,6 Z" id="路径" stroke-width="2" stroke-linejoin="round" fill-rule="nonzero"></path>
                                        <path d="M18.9734868,17.6189264 C18.9734868,17.6189264 17.6018117,6 12.0183874,6 L12.0264639,6 L6.98361093,6 C1.39818833,6 0.0265132262,17.336328 0.0265132262,17.336328 C-0.325743687,20.4454427 2.83208524,22 9.5,22 C16.1679148,22 19.3257437,20.5396421 18.9734868,17.6189264 Z" id="路径" stroke-width="2" stroke-linejoin="round" fill-rule="nonzero"></path>
                                        <line x1="8.5" y1="18.5" x2="10.5" y2="18.5" id="直线-7" stroke-width="2" stroke-linecap="round"></line>
                                        <rect id="矩形" stroke-width="1.5" transform="translate(9.500000, 12.500000) rotate(-45.000000) translate(-9.500000, -12.500000) " x="7.5" y="10.5" width="4" height="4" rx="1"></rect>
                                    </g>
                                </g>
                            </g>
                        </g>
                    </g>
                </g>
            </g>
        </g>
    </g>
</svg>