<?xml version="1.0" encoding="UTF-8"?>
<svg width="47px" height="47px" viewBox="0 0 47 47" version="1.1" xmlns="http://www.w3.org/2000/svg" xmlns:xlink="http://www.w3.org/1999/xlink">
    <title>待回购金额@1x</title>
    <g id="域名" stroke="none" stroke-width="1" fill="none" fill-rule="evenodd">
        <g transform="translate(-816.000000, -641.000000)" id="编组-36">
            <g transform="translate(0.000000, 400.000000)">
                <g id="编组-24" transform="translate(360.000000, 101.000000)">
                    <g id="编组-11" transform="translate(0.000000, 95.000000)">
                        <g id="编组-13" transform="translate(119.000000, 32.000000)">
                            <g id="编组-25" transform="translate(337.000000, 0.000000)">
                                <g id="待回购金额" transform="translate(0.000000, 13.000000)">
                                    <path d="M9.87714692,1.36254239 C18.959049,-0.454180797 28.040951,-0.454180797 37.1228531,1.36254239 C40.8077162,2.17064143 44.8293586,6.19228385 45.6374576,9.87714692 C47.4541808,18.959049 47.4541808,28.040951 45.6374576,37.1228531 C44.8293586,40.8077162 40.8077162,44.8293586 37.1228531,45.6374576 C28.040951,47.4541808 18.959049,47.4541808 9.87714692,45.6374576 C6.19228385,44.8293586 2.17064143,40.8077162 1.36254239,37.1228531 C-0.454180797,28.040951 -0.454180797,18.959049 1.36254239,9.87714692 C2.17064143,6.19228385 6.19228385,2.17064143 9.87714692,1.36254239" id="Fill-1" fill="#7983A1" opacity="0.35"></path>
                                    <g id="编组-29" transform="translate(12.000000, 12.000000)">
                                        <rect id="矩形" x="0" y="0" width="24" height="24"></rect>
                                        <g id="编组-30" transform="translate(3.500000, 2.000000)" stroke="#FFFFFF" stroke-width="2">
                                            <path d="M3.04173018,20 C1.36261486,19.9981786 0.00190413848,18.704647 0,17.1084421 L0,4.89153741 C0.00191605974,3.29533246 1.36263644,2.00181012 3.04175178,2 L3.90447154,2 C4.39401567,2.00050899 4.79075943,2.37759829 4.7913783,2.84296989 C4.7913783,3.48676551 4.97727261,4.25537865 5.86251651,4.25537865 L11.0223577,4.25537865 C11.9076016,4.25537865 12.0934959,3.48729927 12.0934959,2.84296989 C12.0941148,2.37759829 12.4908586,2.00050899 12.9804027,2 L13.9582482,2 C15.637372,2.00181014 16.9980958,3.29534497 17,4.89155794 L17,17.1084626 C16.9980839,18.7046675 15.6373636,19.9981899 13.9582482,20 L3.04173018,20 Z" id="形状" fill-rule="nonzero"></path>
                                            <g id="编组-23" transform="translate(5.000000, 8.500000)" stroke-linecap="round" stroke-linejoin="round">
                                                <polyline id="路径-10" points="0 2 7 2 5.62960713 -2.22044605e-16"></polyline>
                                                <polyline id="路径-10" transform="translate(3.500000, 6.500000) scale(-1, -1) translate(-3.500000, -6.500000) " points="0 7.5 7 7.5 5.62960713 5.5"></polyline>
                                            </g>
                                            <line x1="7.5" y1="0.5" x2="9.5" y2="0.5" id="直线-6" stroke-linecap="round"></line>
                                        </g>
                                    </g>
                                </g>
                            </g>
                        </g>
                    </g>
                </g>
            </g>
        </g>
    </g>
</svg>