<?xml version="1.0" encoding="UTF-8"?>
<svg width="47px" height="47px" viewBox="0 0 47 47" version="1.1" xmlns="http://www.w3.org/2000/svg" xmlns:xlink="http://www.w3.org/1999/xlink">
    <title>已回购数量icon@1x</title>
    <g id="域名" stroke="none" stroke-width="1" fill="none" fill-rule="evenodd">
        <g transform="translate(-1161.000000, -641.000000)" id="编组-36">
            <g transform="translate(0.000000, 400.000000)">
                <g id="编组-24" transform="translate(360.000000, 101.000000)">
                    <g id="编组-11" transform="translate(0.000000, 95.000000)">
                        <g id="编组-13" transform="translate(119.000000, 32.000000)">
                            <g id="编组-21" transform="translate(682.000000, 0.000000)">
                                <g id="已回购数量icon" transform="translate(0.000000, 13.000000)">
                                    <path d="M9.87714692,1.36254239 C18.959049,-0.454180797 28.040951,-0.454180797 37.1228531,1.36254239 C40.8077162,2.17064143 44.8293586,6.19228385 45.6374576,9.87714692 C47.4541808,18.959049 47.4541808,28.040951 45.6374576,37.1228531 C44.8293586,40.8077162 40.8077162,44.8293586 37.1228531,45.6374576 C28.040951,47.4541808 18.959049,47.4541808 9.87714692,45.6374576 C6.19228385,44.8293586 2.17064143,40.8077162 1.36254239,37.1228531 C-0.454180797,28.040951 -0.454180797,18.959049 1.36254239,9.87714692 C2.17064143,6.19228385 6.19228385,2.17064143 9.87714692,1.36254239" id="Fill-1" fill="#744A11" opacity="0.35"></path>
                                    <rect id="矩形" x="12" y="12" width="24" height="24"></rect>
                                    <g id="编组-33" transform="translate(14.000000, 14.000000)" stroke="#FFFFFF" stroke-linecap="round" stroke-linejoin="round" stroke-width="2">
                                        <g id="编组-32">
                                            <path d="M17.6478308,8.18181818 L20,10 C20,4.4771525 15.4228473,0 9.77664329,0 C5.17374986,0 1.28132889,2.97543589 0,7.06721222" id="路径"></path>
                                            <path d="M2.47917876,11.8178108 L0,10 C0,15.5228475 4.42560403,20 9.88486326,20 C14.0712061,20 17.6497249,17.3672838 19.0909091,13.6491776" id="路径"></path>
                                        </g>
                                        <g id="编组-31" transform="translate(5.714286, 5.238095)">
                                            <line x1="0.476190476" y1="4.21768707" x2="0.476190476" y2="9.11564626" id="直线-9"></line>
                                            <line x1="4.28571429" y1="0.396825397" x2="4.28571429" y2="9.12698413" id="直线-10"></line>
                                            <line x1="8.0952381" y1="2.28571429" x2="8.0952381" y2="9.14285714" id="直线-11"></line>
                                        </g>
                                    </g>
                                </g>
                            </g>
                        </g>
                    </g>
                </g>
            </g>
        </g>
    </g>
</svg>